<?xml version="1.0" encoding="utf-8"?>
<!-- Generator: Adobe Illustrator 25.4.1, SVG Export Plug-In . SVG Version: 6.00 Build 0)  -->
<svg version="1.1" id="Camada_1" xmlns="http://www.w3.org/2000/svg" xmlns:xlink="http://www.w3.org/1999/xlink" x="0px" y="0px"
	 viewBox="0 0 1973.11 447.32" style="enable-background:new 0 0 1973.11 447.32;" xml:space="preserve">
<path d="M128.46,232.79c-4.2-2.56-7.96-4.99-11.84-7.19c-12.57-7.13-25.21-14.14-37.78-21.26C59,193.1,39.21,181.78,19.35,170.59
	c-2.23-1.26-3.36-2.88-3.55-5.29c-0.11-1.43-0.14-2.86-0.14-4.29c0.02-10.85,0.05-21.71,0.1-32.56c0.01-1.43,0.09-2.87,0.26-4.28
	c0.2-1.71,1-2.85,2.65-3.78c16.89-9.48,33.72-19.06,50.56-28.63c23.57-13.39,47.15-26.77,70.7-40.21c2.81-1.6,5.75-2.97,8.26-5.17
	c2.32-2.03,5.47-0.61,6.03,2.41c0.19,0.99,0.16,2.03,0.17,3.05c0.03,11.47-0.06,22.94,0.1,34.4c0.06,4.16-1.5,6.89-5.16,8.91
	c-7.85,4.32-15.53,8.95-23.32,13.38c-10.45,5.95-20.93,11.84-31.39,17.77c-10.62,6.02-21.23,12.06-31.82,18.08
	c-0.31,1.65,0.87,2.16,1.93,2.76c14.38,8.12,28.77,16.25,43.15,24.37c13.31,7.52,26.63,15.03,39.94,22.57
	c1.06,0.6,1.96,1.5,3.04,2.05c2.47,1.27,3.43,3.41,3.66,5.98c0.13,1.42,0.09,2.86,0.09,4.3c0.01,17.82,0.01,35.63,0.01,53.45
	c0,0.41-0.04,0.82,0.01,1.23c0.65,4.99-1.89,7.99-6.02,10.3c-26.46,14.84-52.89,29.73-79.29,44.67
	c-14.89,8.43-29.69,17.01-44.56,25.48c-1.76,1-3.65,1.82-5.55,2.54c-1.17,0.44-2.54-0.38-2.87-1.65c-0.36-1.37-0.68-2.8-0.69-4.2
	c-0.08-11.88-0.06-23.75-0.15-35.63c-0.03-3.71,1.72-6.02,4.87-7.81c19.69-11.17,39.31-22.47,58.98-33.66
	c15.07-8.57,30.19-17.05,45.27-25.6C125.82,234.84,126.89,233.92,128.46,232.79z"/>
<path d="M206.03,232.23c0,59.6,0.01,119.19-0.03,178.79c0,2.23-0.19,4.5-0.66,6.67c-0.37,1.68-1.68,2.86-3.56,2.87
	c-10.45,0.03-20.89,0.04-31.34,0c-2.13-0.01-3.39-1.32-3.86-3.31c-0.28-1.18-0.4-2.42-0.44-3.64c-0.07-2.25-0.04-4.5-0.04-6.76
	c-0.03-84.17-0.07-168.34-0.06-252.51c0-33.18,0.11-66.35,0.2-99.53c0-2.04,0.03-4.1,0.33-6.11c0.34-2.25,1.78-3.64,4.11-3.92
	c1.01-0.12,2.04-0.15,3.06-0.16c8.2-0.02,16.39-0.03,24.59-0.03c1.02,0,2.05,0.03,3.07,0.12c2.07,0.18,3.5,1.38,3.98,3.3
	c0.44,1.76,0.57,3.63,0.58,5.45c0.07,12.9,0.1,25.8,0.1,38.71c0.01,46.69,0,93.39,0,140.08
	C206.04,232.23,206.03,232.23,206.03,232.23z"/>
<path d="M243.73,232.99c2.91,1.8,5.27,3.37,7.73,4.76c16.51,9.35,33.05,18.64,49.55,28c16.84,9.56,33.65,19.19,50.46,28.8
	c1.05,0.6,2.09,1.25,3.05,1.99c1.72,1.34,2.54,3.1,2.47,5.34c-0.09,2.66-0.02,5.32-0.02,7.98c0,8.6,0,17.2,0.01,25.8
	c0,0.61,0.02,1.23,0,1.84c-0.12,6.72-2.4,8.15-8.3,4.87c-6.76-3.75-13.36-7.78-20.07-11.61c-17.32-9.89-34.66-19.74-52-29.59
	c-17.34-9.85-34.69-19.68-52.03-29.51c-0.18-0.1-0.41-0.11-0.57-0.22c-6.15-4.1-6.29-3.08-6.3-10.56c-0.02-18.63-0.01-37.26,0-55.89
	c0-1.02,0.01-2.05,0.07-3.07c0.16-2.61,1.15-4.46,3.68-5.84c7.16-3.88,14.13-8.12,21.21-12.16c25.68-14.66,51.37-29.31,77.07-43.95
	c9.57-5.45,19.16-10.86,28.74-16.29c0.71-0.4,1.39-0.88,2.15-1.15c4.03-1.47,6.36,0.07,6.39,4.46c0.08,12.08-0.01,24.16,0.04,36.24
	c0.02,3.42-1.35,5.8-4.35,7.48c-8.33,4.69-16.58,9.52-24.89,14.24c-13.45,7.63-26.93,15.21-40.39,22.83
	c-12.92,7.31-25.84,14.63-38.74,21.98C247.12,230.65,245.68,231.71,243.73,232.99z"/>
<path d="M1271.94,117.32c1.95-6.1,3.26-10.47,4.75-14.78c2.71-7.88,5.6-15.7,8.28-23.59c1.39-4.08,2.43-8.27,3.74-12.37
	c2.71-8.45,5.5-16.88,8.25-25.32c1.75-5.36,3.44-10.74,5.22-16.1c1.75-5.26,3.26-6.41,8.75-6.7c1.62-0.09,3.25,0.02,4.87,0.03
	c4.01,0.03,6.29,1.82,7.57,5.85c3.34,10.51,7.19,20.85,10.14,31.5c2.01,7.23,4.88,14.22,7.25,21.35c3.04,9.18,5.89,18.42,8.95,27.59
	c1.1,3.3,2.57,6.48,4.08,10.26c1.18-2,2.42-3.48,2.99-5.18c3.63-10.7,7-21.48,10.68-32.16c3.67-10.68,8.01-21.15,11.29-31.95
	c2.66-8.78,5.92-17.29,9.17-25.87c5.61-2.37,11.26-1.78,16.89-1.12c1.99,0.23,3.27,1.91,3.28,4.03c0,1.6-0.06,3.3-0.58,4.78
	c-3.68,10.4-7.55,20.74-11.23,31.14c-3.86,10.9-7.55,21.86-11.38,32.77c-2.49,7.1-5.13,14.15-7.65,21.25
	c-2.96,8.35-5.86,16.72-8.8,25.09c-1.16,3.3-2.18,6.66-3.53,9.88c-1.58,3.78-4.31,6.03-8.71,6.06c-11.86,0.07-10.62,0.02-14.18-9.38
	c-5.9-15.59-11.01-31.48-16.31-47.29c-3.93-11.73-7.62-23.54-11.45-35.31c-0.16-0.48-0.6-0.87-1.22-1.73
	c-0.85,1.02-1.98,1.81-2.33,2.87c-2.7,8.18-5.14,16.44-7.89,24.6c-2.31,6.88-5.01,13.63-7.37,20.49
	c-3.93,11.45-7.72,22.95-11.57,34.43c-0.17,0.51-0.26,1.05-0.44,1.56c-3.17,9.12-5.13,10.28-14.88,9.71c-3.73-0.22-6.2-1.9-7.47-5.2
	c-2.6-6.78-5.06-13.62-7.49-20.46c-2.7-7.61-5.26-15.27-7.94-22.89c-2.77-7.86-5.64-15.69-8.43-23.55
	c-3.77-10.64-7.49-21.3-11.28-31.94c-2.53-7.09-5.2-14.13-7.69-21.24c-0.52-1.5-0.67-3.18-0.71-4.79c-0.09-2.89,1.33-4.59,4.31-4.8
	c4.83-0.35,9.7-0.8,15.12,0.61c1.37,2.89,3.17,5.91,4.3,9.17c5.2,14.99,10.05,30.1,15.66,44.96c4.08,10.82,7.29,21.96,10.94,32.95
	C1268.92,109.55,1270.14,112.52,1271.94,117.32z"/>
<path d="M490.83,103.6c-0.06,3.66-0.13,6.33-0.13,9.01c-0.01,10.02,0.06,20.04-0.01,30.06c-0.07,9.6-1.26,10.7-10.81,10.72
	c-0.54,0-1.08,0.01-1.63-0.01c-10.13-0.22-11.08-1.14-11.09-11.28c-0.01-37.64,0.01-75.28,0.04-112.91
	c0.01-9.66,0.61-10.42,9.88-10.47c18.42-0.09,36.85-0.19,55.27,0.14c11.65,0.21,22.22,4.28,31.39,11.43
	c6.86,5.35,11.25,12.49,12,21.29c0.48,5.63,0.53,11.36,0.04,16.98c-0.84,9.76-6.15,17.13-13.92,22.75c-5,3.62-10.46,6.44-16.87,8.11
	c0.59,1.33,0.83,2.41,1.44,3.2c4.76,6.22,9.64,12.36,14.39,18.59c6.06,7.95,12.03,15.97,18.02,23.97c0.48,0.65,0.89,1.36,1.24,2.09
	c1.21,2.54,0.11,5.47-2.57,5.63c-5.37,0.31-10.78,0.21-16.16-0.03c-1.15-0.05-2.41-1.2-3.33-2.13c-1.71-1.72-3.32-3.57-4.77-5.51
	c-9.4-12.53-18.77-25.09-28.1-37.67c-1.67-2.25-3.42-4.22-6.51-4.19C509.77,103.43,500.88,103.51,490.83,103.6z M491.46,83.8
	c2.31,0,4.17,0,6.03,0c10.29,0,20.57-0.06,30.86,0.02c4.39,0.03,8.38-0.82,12.54-2.53c7.56-3.11,12.49-7.83,14.46-15.94
	c2.3-9.44-1.13-17.74-9.42-22.75c-5.18-3.13-10.76-3.44-16.41-3.53c-11.1-0.17-22.2-0.08-33.3-0.02c-1.57,0.01-3.13,0.44-4.59,0.66
	C490.47,45.78,490.3,75,491.46,83.8z"/>
<path d="M1841.84,84.64c0-18.65-0.06-37.3,0.02-55.95c0.04-9.55,0.66-10.23,10.09-10.26c15.14-0.04,30.29,0.18,45.43,0.27
	c3.54,0.02,6.95,0.45,10.3,1.81c4.22,1.71,8.8,2.04,13.11,3.91c10.66,4.62,19.91,11.08,26.83,20.22
	c7.71,10.19,13.5,21.44,13.35,34.81c-0.05,4.32,0.18,8.66-0.07,12.97c-1.09,18.6-9.62,33.37-23.86,44.97
	c-6.5,5.3-13.73,9.79-21.83,11.89c-7.24,1.88-14.4,4.49-22.13,4.39c-13.79-0.17-27.59-0.02-41.38,0c-1.08,0-2.17,0.02-3.24-0.07
	c-4.63-0.42-6.16-1.86-6.63-6.53c-0.22-2.14-0.15-4.32-0.15-6.48c-0.01-18.65-0.01-37.3-0.01-55.95
	C1841.73,84.64,1841.78,84.64,1841.84,84.64z M1863.8,132.18c1.72,0.17,3.02,0.41,4.31,0.4c8.38-0.03,16.77-0.38,25.14-0.11
	c8.98,0.28,17.03-2.5,24.59-6.79c12.34-7.01,19.02-18.3,21.15-31.87c1.29-8.17,0.68-16.51-2.4-24.7
	c-3.9-10.37-10.41-18.1-19.76-23.66c-5.85-3.48-12.03-5.93-19.02-5.84c-10.81,0.14-21.61,0.16-32.42,0.28
	c-0.45,0-0.89,0.5-1.33,0.77C1863.07,46.68,1862.78,121.27,1863.8,132.18z"/>
<path d="M1135.98,99.85c4.07,5.56,7.99,11,11.99,16.37c5.32,7.14,10.71,14.24,16.09,21.34c1.3,1.72,2.75,3.34,3.99,5.1
	c1.08,1.53,2.18,3.1,2.88,4.82c1.06,2.59-0.29,5.29-3.03,5.47c-4.83,0.33-9.72,0.32-14.56,0.06c-1.42-0.08-2.97-1.28-4.1-2.35
	c-1.96-1.85-3.81-3.87-5.41-6.03c-8.21-11.05-16.33-22.17-24.49-33.26c-0.64-0.87-1.44-1.63-2.03-2.53
	c-2.77-4.31-6.56-5.74-11.72-5.43c-7.53,0.46-15.1,0.12-23.06,0.12c-0.34,1.85-0.86,3.35-0.87,4.85c-0.05,10.55,0,21.1,0.01,31.65
	c0,1.62,0.07,3.25-0.03,4.87c-0.38,6.22-2.34,8.4-8.42,8.49c-9.31,0.15-12.64,1.41-12.56-12.05c0.25-37.33,0.07-74.66,0.06-111.99
	c0-0.81-0.08-1.62-0.06-2.43c0.19-6.93,1.29-8.26,8-8.28c18.68-0.06,37.36-0.3,56.02,0.23c11.58,0.33,22.19,4.55,30.93,12.3
	c6.63,5.88,11.09,13.23,11.65,22.43c0.13,2.16,0.24,4.32,0.34,6.48c0.76,16.12-7.06,27.25-20.59,34.9
	C1143.81,96.79,1140.24,98,1135.98,99.85z M1081.86,83.31c2.93,0.18,5.05,0.4,7.17,0.41c9.73,0.03,19.46-0.13,29.19,0.03
	c5.23,0.09,10.04-0.8,14.87-2.98c8.4-3.78,13.64-9.43,13.4-19.09c-0.03-1.35-0.1-2.7-0.12-4.05c-0.08-6.57-3.41-11.06-8.79-14.5
	c-5.02-3.21-10.53-3.9-16.24-3.92c-11.35-0.04-22.71-0.09-34.06-0.04c-1.78,0.01-3.56,0.54-5.42,0.85
	C1081.86,54.48,1081.86,68.47,1081.86,83.31z"/>
<path d="M1590.04,84.5c0.41,15.49-3.66,28.89-11.67,40.7c-7.85,11.57-18.5,20.08-31.77,25.47c-7.74,3.15-15.77,3.42-23.7,4.76
	c-2.84,0.48-5.92-0.27-8.87-0.58c-2.96-0.31-5.98-0.47-8.83-1.23c-4.39-1.18-8.88-2.35-12.94-4.33
	c-16.14-7.86-27.94-19.74-34.67-36.76c-3.15-7.96-3.92-16.21-5.36-24.39c-0.54-3.09,0.27-6.44,0.67-9.65
	c0.3-2.41,1.06-4.76,1.39-7.17c1.56-11.63,7.11-21.48,14.18-30.43c6.8-8.6,15.54-14.95,25.78-19.06c9.33-3.75,18.92-6.33,29.07-5.92
	c3.2,0.13,6.45,0.59,9.56,1.37c5.2,1.32,10.54,1.79,15.54,4.29c5.57,2.78,11.07,5.48,15.85,9.52c8.79,7.43,16.2,15.9,20.35,26.82
	C1588,66.78,1590.67,75.81,1590.04,84.5z M1521.73,36.94c-3.24,0-6.53-0.32-9.71,0.11c-2.34,0.31-4.5,1.79-6.82,2.42
	c-9.97,2.72-16.86,9.57-22.44,17.59c-3,4.32-5.32,9.6-6.27,14.75c-1.39,7.58-2.23,15.21-0.85,23.24
	c2.08,12.06,7.17,21.93,16.35,29.71c4.75,4.03,10.49,6.15,16.38,8.35c11.01,4.12,21.58,2.58,31.53-1.68
	c17.08-7.31,25.63-21.68,28.16-39.54c1.42-10.03-0.77-19.69-5.3-28.94C1554.36,45.75,1540.55,37.41,1521.73,36.94z"/>
<path d="M1781.78,85.93c0.59,14.27-3.74,27.32-11.46,38.92c-7.74,11.63-18.37,20.19-31.57,25.66c-7.95,3.29-16.23,3.82-24.46,4.8
	c-3.91,0.47-8.01-0.89-12.05-1.17c-10.26-0.71-19.12-4.94-27.63-10.36c-11.59-7.39-19.34-17.76-24.65-30.24
	c-4.42-10.37-6.47-21.26-5.41-32.34c2.5-26.26,14.86-46.55,38.96-58.34c9.16-4.48,19.22-6.93,29.67-6.98
	c10.74-0.05,20.94,2.54,30.38,7.24c16.08,8,27.36,20.78,34.11,37.41C1780.54,67.6,1781.79,76.53,1781.78,85.93z M1712.62,36.65
	c-5.03-0.09-10.16,0.6-15.43,2.53c-10.72,3.92-18.38,10.86-24.12,20.44c-3.56,5.95-5.33,12.3-5.7,19.17
	c-0.64,11.99-0.07,23.52,6.5,34.33c8.45,13.9,21.1,20.18,36.5,22.29c7.5,1.03,14.75-0.89,21.31-3.82
	c17.26-7.69,26.14-21.95,28.33-40.31c0.82-6.9,0.92-14.07-2.37-20.66C1753.84,52.84,1734.29,35.25,1712.62,36.65z"/>
<path d="M923.46,132.74c2.67,0,4.79,0,6.92,0c20.03,0.02,40.06,0.26,60.09-0.04c10.06-0.15,10.91,3.89,10.76,11.07
	c-0.03,1.35-0.11,2.71-0.33,4.04c-0.6,3.65-2.12,5.09-5.88,5.54c-1.34,0.16-2.7,0.09-4.05,0.09c-25.98,0.03-51.97,0.08-77.95,0.07
	c-2.42,0-4.86-0.14-7.26-0.49c-1.7-0.25-2.98-1.43-3.22-3.21c-0.33-2.4-0.6-4.83-0.6-7.25c-0.01-15.69,0.09-31.38,0.11-47.06
	c0.02-22.18-0.02-44.36,0.02-66.54c0.02-10.03,0.34-10.33,10.62-10.34c25.17-0.05,50.34-0.07,75.52-0.07c2.7,0,5.41,0.15,8.09,0.41
	c2.46,0.24,3.98,1.79,4.24,4.19c0.3,2.67,0.46,5.4,0.32,8.08c-0.22,4.18-2.24,6.33-6.46,7.03c-1.85,0.3-3.77,0.19-5.66,0.18
	c-20.3-0.04-40.6-0.11-60.9-0.14c-1.33,0-2.65,0.17-4.25,0.28c-1.66,5.95-0.56,11.89-0.74,17.74c-0.18,5.9,0.05,11.81,0.11,18.18
	c2.05,0.23,3.56,0.54,5.08,0.54c18.13,0,36.27-0.06,54.4-0.08c1.34,0,2.71,0.09,4.02,0.35c3.16,0.62,4.62,2.19,5.12,5.45
	c0.2,1.33,0.19,2.7,0.21,4.05c0.11,9.07-1.05,10.27-10.15,10.29c-16.51,0.04-33.02,0.02-49.53,0.03c-2.68,0-5.36,0-7.86,0
	C922.71,100.19,922.36,118.33,923.46,132.74z"/>
<path d="M712.49,292.45c5.89,13.28,11.72,26.6,17.7,39.85c7.76,17.18,15.65,34.29,23.47,51.44c4.7,10.29,9.45,20.56,14.01,30.91
	c0.96,2.18,1.44,4.64,1.77,7.02c0.33,2.46-1.13,4.43-3.53,4.58c-4.04,0.26-8.12,0.32-12.16,0.08c-2.91-0.17-4.79-2.03-5.99-4.78
	c-3.23-7.41-6.6-14.77-10.01-22.1c-1.24-2.65-2.76-5.17-4.04-7.53c-14.94,0-29.27,0.02-43.61-0.01c-5.42-0.01-10.84-0.04-16.25-0.23
	c-2.79-0.1-4.64,0.85-5.76,3.45c-3.31,7.68-6.69,15.33-10.06,22.98c-0.54,1.23-1.05,2.5-1.76,3.63c-1.98,3.15-4.54,5.26-8.63,4.91
	c-3.23-0.27-6.51-0.04-9.73-0.38c-2.69-0.29-4.11-2.68-3.48-5.39c0.3-1.3,0.85-2.56,1.4-3.79c8.1-18.21,16.15-36.45,24.36-54.62
	c7.65-16.92,15.49-33.76,23.23-50.64c1.91-4.16,3.67-8.39,5.63-12.53c0.91-1.93,2.11-3.72,3.21-5.55c1.06-1.76,2.73-2.7,4.71-2.77
	C701.82,290.81,706.72,290.21,712.49,292.45z M678.42,372.57c15.76,0,30.03,0.02,44.31-0.05c0.65,0,1.29-0.75,1.82-1.07
	c0-0.76,0.17-1.36-0.02-1.8c-6.72-15.21-13.46-30.41-20.27-45.57c-0.47-1.05-1.55-1.82-2.64-3.05
	C693.9,338.16,686.45,354.73,678.42,372.57z"/>
<path d="M847.08,381.52c0,11.12,0.01,21.38-0.01,31.64c0,2.43,0.08,4.89-0.16,7.3c-0.42,4.26-1.94,5.81-6.17,6.01
	c-3.51,0.17-7.04,0.06-10.54-0.17c-2.39-0.16-4.03-1.6-4.36-4.07c-0.29-2.14-0.47-4.31-0.48-6.46
	c-0.07-38.17-0.11-76.34-0.14-114.51c0-2.94-0.3-5.97,1.92-9.16c1.99-0.28,4.36-0.9,6.72-0.89c17.06,0.04,34.16-0.44,51.18,0.56
	c12.3,0.72,23.73,5.15,32.35,14.72c6.71,7.45,10.95,15.99,10.69,26.31c-0.05,1.89-0.03,3.79,0,5.68
	c0.15,12.25-5.45,21.81-14.38,29.54c-5.94,5.15-12.58,9.29-20.71,10.16c-6.5,3.63-13.64,2.83-20.64,2.92
	c-6.23,0.08-12.46,0-18.69,0.04C851.81,381.15,849.96,381.35,847.08,381.52z M848.12,360.39c0.48,0.21,0.97,0.61,1.44,0.59
	c11.34-0.36,22.68-0.54,34-1.21c9.87-0.59,17.35-5.06,21.35-14.59c6.35-15.13-2.89-31.17-19.47-32.22
	c-11.59-0.74-23.24-0.33-34.87-0.36c-0.98,0-1.96,0.54-2.8,0.78C846.63,323.57,846.9,355.08,848.12,360.39z"/>
<path d="M1301.72,391.51c-21.08,0-42.15,0-63.19,0c-4.34,4.61-5.72,10.54-8.31,15.83c-2.48,5.08-4.85,10.22-7.2,15.36
	c-0.88,1.94-2.46,3.07-4.37,3.2c-4.03,0.26-8.1,0.3-12.14,0.14c-2.02-0.08-3.46-1.82-3.41-3.89c0.04-1.84,0.2-3.84,0.95-5.48
	c11.31-24.75,23.03-49.32,34-74.21c6.52-14.79,13.53-29.35,19.97-44.16c2.2-5.06,5.34-7.15,10.55-6.86c1.08,0.06,2.17,0.08,3.25,0
	c5.61-0.42,8.62,1.99,10.89,7.38c6.89,16.4,14.49,32.51,21.84,48.73c8.12,17.93,16.24,35.86,24.4,53.77
	c2.34,5.14,4.87,10.2,7.22,15.34c0.55,1.2,0.94,2.54,1.06,3.85c0.3,3.25-1.26,5.23-4.46,5.6c-2.14,0.24-4.35-0.07-6.48,0.21
	c-6.6,0.84-9.92-2.83-12.23-8.32c-3.34-7.93-6.86-15.79-10.36-23.65C1303.24,393.38,1302.47,392.58,1301.72,391.51z M1269.9,318.52
	c-8.29,18.49-15.78,35.19-23.23,51.91c-0.18,0.41,0.1,1.02,0.15,1.45c0.22,0.24,0.36,0.56,0.55,0.59c1.33,0.19,2.67,0.44,4,0.43
	c13.54-0.02,27.08-0.09,40.62-0.16c0.25,0,0.55-0.12,0.75-0.28c0.19-0.15,0.27-0.42,0.7-1.15
	C1285.95,354.51,1278.32,337.41,1269.9,318.52z"/>
<path d="M537.03,288.55c15.88,0.83,30.71,4.8,43.3,15.22c1.87,1.55,3.95,2.83,5.88,4.31c2.35,1.81,2.92,3.61,1.8,6.36
	c-0.6,1.47-1.4,2.95-2.45,4.13c-1.79,2.01-3.79,3.83-5.79,5.65c-2.25,2.06-4.9,2.39-7.41,0.84c-1.6-0.99-3.13-2.16-4.5-3.46
	c-6.25-5.96-14.09-9.32-22.13-11.04c-7.5-1.6-15.58-2.15-23.13,1.17c-3.18,1.4-6.51,2.23-9.63,4.04
	c-11.21,6.49-17.58,16.12-20.85,28.44c-1.47,5.53-3.11,10.94-2.5,16.67c1.62,15.24,6.53,28.91,19.66,38.21
	c11.87,8.41,24.71,10.94,39.08,7.09c9.24-2.48,16.74-7.16,23.43-13.64c3.59-3.48,5.53-3.71,9.01-0.68c2.64,2.3,5.08,4.85,7.36,7.5
	c2.11,2.45,2.01,5.11-0.45,7.17c-8.26,6.9-16.67,13.35-26.95,17.44c-8.02,3.19-16.27,3.47-24.46,4.76
	c-1.81,0.28-3.76-0.22-5.63-0.48c-2.41-0.34-4.78-0.96-7.2-1.21c-13.72-1.43-24.91-7.91-34.76-17.16
	c-7.39-6.94-13.2-15.09-16.6-24.57c-2.62-7.29-5.59-14.68-4.84-22.78c0.2-2.15-0.02-4.33,0.03-6.49c0.39-16.21,5.9-30.46,16.5-42.73
	c5.68-6.58,11.89-12.51,19.84-16.42c5.57-2.74,11.1-5.27,17.35-6.31C526.31,289.72,531.42,287.58,537.03,288.55z"/>
<path d="M781.61,122.97c2.61-5.78,4.7-10.14,6.58-14.59c5.33-12.65,10.62-25.31,15.84-38c4.7-11.44,9.23-22.94,13.95-34.37
	c1.95-4.72,4.22-9.3,6.28-13.98c1-2.29,2.79-3.23,5.13-3.26c3.79-0.04,7.58-0.13,11.36,0.07c2.85,0.15,4.5,2.04,4.31,4.82
	c-0.11,1.57-0.58,3.17-1.19,4.63c-5.23,12.38-10.5,24.75-15.82,37.1c-4.26,9.88-8.62,19.72-12.89,29.6
	c-5.34,12.36-10.62,24.75-15.93,37.13c-2.34,5.45-4.68,10.9-6.99,16.36c-1.28,3.03-3.56,4.7-6.81,4.99
	c-1.61,0.14-3.25,0.13-4.87,0.11c-6.53-0.07-8.55-1.49-11.05-7.42c-6.05-14.38-12.13-28.74-18.23-43.1
	c-7.05-16.61-14.1-33.21-21.21-49.79c-3.61-8.42-7.34-16.79-11.02-25.17c-0.43-0.99-1.07-1.9-1.41-2.91
	c-1.17-3.5,0.32-6.06,3.93-6.33c3.5-0.26,7.03-0.09,10.55-0.16c3.98-0.07,6.66,1.76,8.25,5.36c2.07,4.68,4.29,9.29,6.24,14.02
	c2.86,6.96,5.48,14.03,8.31,21c7.41,18.23,14.86,36.43,22.34,54.63C778.36,116.4,779.74,119.01,781.61,122.97z"/>
<path d="M1108.22,312.3c-3.72-0.11-6.39-0.24-9.06-0.25c-8.12-0.03-16.24-0.01-24.35-0.04c-1.61-0.01-3.25-0.06-4.84-0.33
	c-1.72-0.3-3.18-1.45-3.27-3.17c-0.25-4.55-0.32-9.13-0.14-13.69c0.07-1.73,1.65-2.77,3.41-2.96c1.88-0.2,3.78-0.25,5.67-0.25
	c28.68-0.03,57.37-0.06,86.05-0.04c9.8,0.01,10.5,0.8,10.33,10.73c-0.01,0.54,0.01,1.08-0.02,1.62c-0.35,6.53-1.9,8.17-8.36,8.23
	c-9.2,0.08-18.4-0.06-27.6-0.07c-1.85,0-3.71,0.17-6.07,0.28c-0.21,2.42-0.53,4.48-0.53,6.54c-0.03,31.37-0.01,62.74-0.03,94.11
	c0,2.7-0.08,5.41-0.37,8.09c-0.3,2.7-1.94,4.64-4.67,4.84c-3.75,0.27-7.55,0.27-11.3,0.03c-2.36-0.15-3.97-1.73-4.22-4.21
	c-0.24-2.42-0.34-4.85-0.35-7.28c-0.03-31.1-0.02-62.2-0.04-93.3C1108.46,318.52,1108.32,315.87,1108.22,312.3z"/>
<path d="M1414.79,405.52c2.99,0.15,5.62,0.39,8.26,0.39c17.59,0.04,35.18-0.04,52.77,0.1c3.19,0.03,6.39,0.8,9.56,1.35
	c2.42,0.42,3.9,1.92,3.97,4.42c0.37,12.6,1.33,14.15-12.73,14.33c-24.35,0.31-48.71,0.11-73.06,0.13c-0.81,0-1.63,0.04-2.44,0
	c-5.01-0.24-6.29-1.36-6.73-6.15c-0.2-2.15-0.14-4.32-0.14-6.48c-0.01-36.78-0.01-73.55,0.02-110.33c0-2.69,0.15-5.4,0.46-8.07
	c0.2-1.75,1.44-3.08,3.2-3.18c3.77-0.21,7.55-0.27,11.32-0.11c2.8,0.12,4.44,2,4.84,4.65c0.36,2.39,0.43,4.84,0.42,7.26
	c-0.01,32.99-0.06,65.98-0.09,98.97C1414.43,403.34,1414.57,403.87,1414.79,405.52z"/>
<path d="M1006.62,358.41c0,18.93,0.02,37.85-0.01,56.78c-0.01,10.69-0.87,11.5-11.61,11.31c-0.54-0.01-1.08,0.02-1.62-0.01
	c-5.92-0.33-7.78-2.06-8.2-7.77c-0.14-1.88-0.06-3.78-0.06-5.68c0-35.96-0.01-71.92,0.01-107.89c0-2.7,0-5.42,0.31-8.09
	c0.4-3.42,1.84-4.96,5.16-5.2c3.76-0.27,7.57-0.23,11.34-0.03c2.53,0.14,3.89,1.6,4.24,4.12c0.26,1.86,0.27,3.77,0.27,5.66
	c0.02,18.93,0.01,37.85,0.01,56.78C1006.51,358.41,1006.56,358.41,1006.62,358.41z"/>
<path d="M659.9,86.1c0,18.95,0,37.91,0,56.86c0,9.19-1.19,10.39-10.19,10.39c-9.02,0-10.61-1.39-10.62-10.16
	c-0.06-38.45-0.03-76.9-0.04-115.35c0-0.81-0.02-1.63,0.04-2.44c0.34-4.93,1.51-6.27,6.32-6.64c2.96-0.23,5.96-0.21,8.93-0.02
	c3.87,0.26,5.13,1.64,5.54,5.62c0.14,1.34,0.08,2.7,0.08,4.06c0,19.22,0,38.45,0,57.67C659.94,86.1,659.92,86.1,659.9,86.1z"/>
</svg>
