<?xml version="1.0" encoding="utf-8"?>
<!-- Generator: Adobe Illustrator 25.4.1, SVG Export Plug-In . SVG Version: 6.00 Build 0)  -->
<svg version="1.1" id="Camada_1" xmlns="http://www.w3.org/2000/svg" xmlns:xlink="http://www.w3.org/1999/xlink" x="0px" y="0px"
	 viewBox="0 0 1973.1 447.3" style="enable-background:new 0 0 1973.1 447.3;" xml:space="preserve">
<style type="text/css">
	.st0{fill:#6C6E6F;}
	.st1{fill:#0E75B9;}
</style>
<path class="st0" d="M128.5,232.8c-4.2-2.6-8-5-11.8-7.2c-12.6-7.1-25.2-14.1-37.8-21.3c-19.8-11.2-39.6-22.6-59.5-33.8
	c-2.2-1.3-3.4-2.9-3.6-5.3c-0.1-1.4-0.1-2.9-0.1-4.3c0-10.9,0.1-21.7,0.1-32.6c0-1.4,0.1-2.9,0.3-4.3c0.2-1.7,1-2.8,2.6-3.8
	c16.9-9.5,33.7-19.1,50.6-28.6c23.6-13.4,47.2-26.8,70.7-40.2c2.8-1.6,5.8-3,8.3-5.2c2.3-2,5.5-0.6,6,2.4c0.2,1,0.2,2,0.2,3
	c0,11.5-0.1,22.9,0.1,34.4c0.1,4.2-1.5,6.9-5.2,8.9c-7.9,4.3-15.5,8.9-23.3,13.4c-10.4,5.9-20.9,11.8-31.4,17.8
	c-10.6,6-21.2,12.1-31.8,18.1c-0.3,1.6,0.9,2.2,1.9,2.8c14.4,8.1,28.8,16.3,43.2,24.4c13.3,7.5,26.6,15,39.9,22.6
	c1.1,0.6,2,1.5,3,2.1c2.5,1.3,3.4,3.4,3.7,6c0.1,1.4,0.1,2.9,0.1,4.3c0,17.8,0,35.6,0,53.4c0,0.4,0,0.8,0,1.2c0.6,5-1.9,8-6,10.3
	c-26.5,14.8-52.9,29.7-79.3,44.7c-14.9,8.4-29.7,17-44.6,25.5c-1.8,1-3.6,1.8-5.5,2.5c-1.2,0.4-2.5-0.4-2.9-1.6
	c-0.4-1.4-0.7-2.8-0.7-4.2c-0.1-11.9-0.1-23.8-0.1-35.6c0-3.7,1.7-6,4.9-7.8c19.7-11.2,39.3-22.5,59-33.7
	c15.1-8.6,30.2-17.1,45.3-25.6C125.8,234.8,126.9,233.9,128.5,232.8z"/>
<path class="st0" d="M206,232.2c0,59.6,0,119.2,0,178.8c0,2.2-0.2,4.5-0.7,6.7c-0.4,1.7-1.7,2.9-3.6,2.9c-10.4,0-20.9,0-31.3,0
	c-2.1,0-3.4-1.3-3.9-3.3c-0.3-1.2-0.4-2.4-0.4-3.6c-0.1-2.3,0-4.5,0-6.8c0-84.2-0.1-168.3-0.1-252.5c0-33.2,0.1-66.3,0.2-99.5
	c0-2,0-4.1,0.3-6.1c0.3-2.3,1.8-3.6,4.1-3.9c1-0.1,2-0.2,3.1-0.2c8.2,0,16.4,0,24.6,0c1,0,2.1,0,3.1,0.1c2.1,0.2,3.5,1.4,4,3.3
	c0.4,1.8,0.6,3.6,0.6,5.5c0.1,12.9,0.1,25.8,0.1,38.7C206.1,138.9,206.1,185.6,206,232.2C206,232.2,206,232.2,206,232.2z"/>
<path class="st0" d="M243.7,233c2.9,1.8,5.3,3.4,7.7,4.8c16.5,9.4,33,18.6,49.5,28c16.8,9.6,33.6,19.2,50.5,28.8c1,0.6,2.1,1.3,3,2
	c1.7,1.3,2.5,3.1,2.5,5.3c-0.1,2.7,0,5.3,0,8c0,8.6,0,17.2,0,25.8c0,0.6,0,1.2,0,1.8c-0.1,6.7-2.4,8.1-8.3,4.9
	c-6.8-3.8-13.4-7.8-20.1-11.6c-17.3-9.9-34.7-19.7-52-29.6s-34.7-19.7-52-29.5c-0.2-0.1-0.4-0.1-0.6-0.2c-6.1-4.1-6.3-3.1-6.3-10.6
	c0-18.6,0-37.3,0-55.9c0-1,0-2.1,0.1-3.1c0.2-2.6,1.1-4.5,3.7-5.8c7.2-3.9,14.1-8.1,21.2-12.2c25.7-14.7,51.4-29.3,77.1-43.9
	c9.6-5.4,19.2-10.9,28.7-16.3c0.7-0.4,1.4-0.9,2.1-1.2c4-1.5,6.4,0.1,6.4,4.5c0.1,12.1,0,24.2,0,36.2c0,3.4-1.4,5.8-4.4,7.5
	c-8.3,4.7-16.6,9.5-24.9,14.2c-13.5,7.6-26.9,15.2-40.4,22.8c-12.9,7.3-25.8,14.6-38.7,22C247.1,230.6,245.7,231.7,243.7,233z"/>
<path class="st0" d="M1271.9,117.3c1.9-6.1,3.3-10.5,4.8-14.8c2.7-7.9,5.6-15.7,8.3-23.6c1.4-4.1,2.4-8.3,3.7-12.4
	c2.7-8.5,5.5-16.9,8.3-25.3c1.8-5.4,3.4-10.7,5.2-16.1c1.8-5.3,3.3-6.4,8.8-6.7c1.6-0.1,3.3,0,4.9,0c4,0,6.3,1.8,7.6,5.9
	c3.3,10.5,7.2,20.8,10.1,31.5c2,7.2,4.9,14.2,7.3,21.3c3,9.2,5.9,18.4,8.9,27.6c1.1,3.3,2.6,6.5,4.1,10.3c1.2-2,2.4-3.5,3-5.2
	c3.6-10.7,7-21.5,10.7-32.2c3.7-10.7,8-21.2,11.3-32c2.7-8.8,5.9-17.3,9.2-25.9c5.6-2.4,11.3-1.8,16.9-1.1c2,0.2,3.3,1.9,3.3,4
	c0,1.6-0.1,3.3-0.6,4.8c-3.7,10.4-7.6,20.7-11.2,31.1c-3.9,10.9-7.6,21.9-11.4,32.8c-2.5,7.1-5.1,14.2-7.7,21.3
	c-3,8.3-5.9,16.7-8.8,25.1c-1.2,3.3-2.2,6.7-3.5,9.9c-1.6,3.8-4.3,6-8.7,6.1c-11.9,0.1-10.6,0-14.2-9.4c-5.9-15.6-11-31.5-16.3-47.3
	c-3.9-11.7-7.6-23.5-11.4-35.3c-0.2-0.5-0.6-0.9-1.2-1.7c-0.8,1-2,1.8-2.3,2.9c-2.7,8.2-5.1,16.4-7.9,24.6c-2.3,6.9-5,13.6-7.4,20.5
	c-3.9,11.4-7.7,23-11.6,34.4c-0.2,0.5-0.3,1.1-0.4,1.6c-3.2,9.1-5.1,10.3-14.9,9.7c-3.7-0.2-6.2-1.9-7.5-5.2
	c-2.6-6.8-5.1-13.6-7.5-20.5c-2.7-7.6-5.3-15.3-7.9-22.9c-2.8-7.9-5.6-15.7-8.4-23.6c-3.8-10.6-7.5-21.3-11.3-31.9
	c-2.5-7.1-5.2-14.1-7.7-21.2c-0.5-1.5-0.7-3.2-0.7-4.8c-0.1-2.9,1.3-4.6,4.3-4.8c4.8-0.4,9.7-0.8,15.1,0.6c1.4,2.9,3.2,5.9,4.3,9.2
	c5.2,15,10.1,30.1,15.7,45c4.1,10.8,7.3,22,10.9,32.9C1268.9,109.6,1270.1,112.5,1271.9,117.3z"/>
<path class="st0" d="M490.8,103.6c-0.1,3.7-0.1,6.3-0.1,9c0,10,0.1,20,0,30.1c-0.1,9.6-1.3,10.7-10.8,10.7c-0.5,0-1.1,0-1.6,0
	c-10.1-0.2-11.1-1.1-11.1-11.3c0-37.6,0-75.3,0-112.9c0-9.7,0.6-10.4,9.9-10.5c18.4-0.1,36.9-0.2,55.3,0.1
	c11.7,0.2,22.2,4.3,31.4,11.4c6.9,5.3,11.3,12.5,12,21.3c0.5,5.6,0.5,11.4,0,17c-0.8,9.8-6.2,17.1-13.9,22.8
	c-5,3.6-10.5,6.4-16.9,8.1c0.6,1.3,0.8,2.4,1.4,3.2c4.8,6.2,9.6,12.4,14.4,18.6c6.1,7.9,12,16,18,24c0.5,0.6,0.9,1.4,1.2,2.1
	c1.2,2.5,0.1,5.5-2.6,5.6c-5.4,0.3-10.8,0.2-16.2,0c-1.2-0.1-2.4-1.2-3.3-2.1c-1.7-1.7-3.3-3.6-4.8-5.5
	c-9.4-12.5-18.8-25.1-28.1-37.7c-1.7-2.3-3.4-4.2-6.5-4.2C509.8,103.4,500.9,103.5,490.8,103.6z M491.5,83.8c2.3,0,4.2,0,6,0
	c10.3,0,20.6-0.1,30.9,0c4.4,0,8.4-0.8,12.5-2.5c7.6-3.1,12.5-7.8,14.5-15.9c2.3-9.4-1.1-17.7-9.4-22.8c-5.2-3.1-10.8-3.4-16.4-3.5
	c-11.1-0.2-22.2-0.1-33.3,0c-1.6,0-3.1,0.4-4.6,0.7C490.5,45.8,490.3,75,491.5,83.8z"/>
<path class="st0" d="M1841.8,84.6c0-18.7-0.1-37.3,0-56c0-9.5,0.7-10.2,10.1-10.3c15.1,0,30.3,0.2,45.4,0.3c3.5,0,6.9,0.5,10.3,1.8
	c4.2,1.7,8.8,2,13.1,3.9c10.7,4.6,19.9,11.1,26.8,20.2c7.7,10.2,13.5,21.4,13.3,34.8c-0.1,4.3,0.2,8.7-0.1,13
	c-1.1,18.6-9.6,33.4-23.9,45c-6.5,5.3-13.7,9.8-21.8,11.9c-7.2,1.9-14.4,4.5-22.1,4.4c-13.8-0.2-27.6,0-41.4,0c-1.1,0-2.2,0-3.2-0.1
	c-4.6-0.4-6.2-1.9-6.6-6.5c-0.2-2.1-0.2-4.3-0.2-6.5c0-18.7,0-37.3,0-55.9C1841.7,84.6,1841.8,84.6,1841.8,84.6z M1863.8,132.2
	c1.7,0.2,3,0.4,4.3,0.4c8.4,0,16.8-0.4,25.1-0.1c9,0.3,17-2.5,24.6-6.8c12.3-7,19-18.3,21.2-31.9c1.3-8.2,0.7-16.5-2.4-24.7
	c-3.9-10.4-10.4-18.1-19.8-23.7c-5.8-3.5-12-5.9-19-5.8c-10.8,0.1-21.6,0.2-32.4,0.3c-0.4,0-0.9,0.5-1.3,0.8
	C1863.1,46.7,1862.8,121.3,1863.8,132.2z"/>
<path class="st0" d="M1136,99.8c4.1,5.6,8,11,12,16.4c5.3,7.1,10.7,14.2,16.1,21.3c1.3,1.7,2.8,3.3,4,5.1c1.1,1.5,2.2,3.1,2.9,4.8
	c1.1,2.6-0.3,5.3-3,5.5c-4.8,0.3-9.7,0.3-14.6,0.1c-1.4-0.1-3-1.3-4.1-2.4c-2-1.9-3.8-3.9-5.4-6c-8.2-11.1-16.3-22.2-24.5-33.3
	c-0.6-0.9-1.4-1.6-2-2.5c-2.8-4.3-6.6-5.7-11.7-5.4c-7.5,0.5-15.1,0.1-23.1,0.1c-0.3,1.8-0.9,3.3-0.9,4.8c-0.1,10.6,0,21.1,0,31.7
	c0,1.6,0.1,3.3,0,4.9c-0.4,6.2-2.3,8.4-8.4,8.5c-9.3,0.1-12.6,1.4-12.6-12.1c0.3-37.3,0.1-74.7,0.1-112c0-0.8-0.1-1.6-0.1-2.4
	c0.2-6.9,1.3-8.3,8-8.3c18.7-0.1,37.4-0.3,56,0.2c11.6,0.3,22.2,4.5,30.9,12.3c6.6,5.9,11.1,13.2,11.7,22.4c0.1,2.2,0.2,4.3,0.3,6.5
	c0.8,16.1-7.1,27.3-20.6,34.9C1143.8,96.8,1140.2,98,1136,99.8z M1081.9,83.3c2.9,0.2,5.1,0.4,7.2,0.4c9.7,0,19.5-0.1,29.2,0
	c5.2,0.1,10-0.8,14.9-3c8.4-3.8,13.6-9.4,13.4-19.1c0-1.3-0.1-2.7-0.1-4c-0.1-6.6-3.4-11.1-8.8-14.5c-5-3.2-10.5-3.9-16.2-3.9
	c-11.3,0-22.7-0.1-34.1,0c-1.8,0-3.6,0.5-5.4,0.8C1081.9,54.5,1081.9,68.5,1081.9,83.3z"/>
<path class="st0" d="M1590,84.5c0.4,15.5-3.7,28.9-11.7,40.7c-7.8,11.6-18.5,20.1-31.8,25.5c-7.7,3.1-15.8,3.4-23.7,4.8
	c-2.8,0.5-5.9-0.3-8.9-0.6c-3-0.3-6-0.5-8.8-1.2c-4.4-1.2-8.9-2.4-12.9-4.3c-16.1-7.9-27.9-19.7-34.7-36.8c-3.2-8-3.9-16.2-5.4-24.4
	c-0.5-3.1,0.3-6.4,0.7-9.7c0.3-2.4,1.1-4.8,1.4-7.2c1.6-11.6,7.1-21.5,14.2-30.4c6.8-8.6,15.5-15,25.8-19.1
	c9.3-3.8,18.9-6.3,29.1-5.9c3.2,0.1,6.4,0.6,9.6,1.4c5.2,1.3,10.5,1.8,15.5,4.3c5.6,2.8,11.1,5.5,15.8,9.5
	c8.8,7.4,16.2,15.9,20.3,26.8C1588,66.8,1590.7,75.8,1590,84.5z M1521.7,36.9c-3.2,0-6.5-0.3-9.7,0.1c-2.3,0.3-4.5,1.8-6.8,2.4
	c-10,2.7-16.9,9.6-22.4,17.6c-3,4.3-5.3,9.6-6.3,14.7c-1.4,7.6-2.2,15.2-0.8,23.2c2.1,12.1,7.2,21.9,16.3,29.7
	c4.8,4,10.5,6.1,16.4,8.4c11,4.1,21.6,2.6,31.5-1.7c17.1-7.3,25.6-21.7,28.2-39.5c1.4-10-0.8-19.7-5.3-28.9
	C1554.4,45.8,1540.6,37.4,1521.7,36.9z"/>
<path class="st0" d="M1781.8,85.9c0.6,14.3-3.7,27.3-11.5,38.9c-7.7,11.6-18.4,20.2-31.6,25.7c-7.9,3.3-16.2,3.8-24.5,4.8
	c-3.9,0.5-8-0.9-12.1-1.2c-10.3-0.7-19.1-4.9-27.6-10.4c-11.6-7.4-19.3-17.8-24.7-30.2c-4.4-10.4-6.5-21.3-5.4-32.3
	c2.5-26.3,14.9-46.5,39-58.3c9.2-4.5,19.2-6.9,29.7-7c10.7-0.1,20.9,2.5,30.4,7.2c16.1,8,27.4,20.8,34.1,37.4
	C1780.5,67.6,1781.8,76.5,1781.8,85.9z M1712.6,36.7c-5-0.1-10.2,0.6-15.4,2.5c-10.7,3.9-18.4,10.9-24.1,20.4
	c-3.6,5.9-5.3,12.3-5.7,19.2c-0.6,12-0.1,23.5,6.5,34.3c8.4,13.9,21.1,20.2,36.5,22.3c7.5,1,14.8-0.9,21.3-3.8
	c17.3-7.7,26.1-21.9,28.3-40.3c0.8-6.9,0.9-14.1-2.4-20.7C1753.8,52.8,1734.3,35.3,1712.6,36.7z"/>
<path class="st0" d="M923.5,132.7c2.7,0,4.8,0,6.9,0c20,0,40.1,0.3,60.1,0c10.1-0.1,10.9,3.9,10.8,11.1c0,1.4-0.1,2.7-0.3,4
	c-0.6,3.6-2.1,5.1-5.9,5.5c-1.3,0.2-2.7,0.1-4,0.1c-26,0-52,0.1-78,0.1c-2.4,0-4.9-0.1-7.3-0.5c-1.7-0.3-3-1.4-3.2-3.2
	c-0.3-2.4-0.6-4.8-0.6-7.3c0-15.7,0.1-31.4,0.1-47.1c0-22.2,0-44.4,0-66.5c0-10,0.3-10.3,10.6-10.3c25.2,0,50.3-0.1,75.5-0.1
	c2.7,0,5.4,0.1,8.1,0.4c2.5,0.2,4,1.8,4.2,4.2c0.3,2.7,0.5,5.4,0.3,8.1c-0.2,4.2-2.2,6.3-6.5,7c-1.8,0.3-3.8,0.2-5.7,0.2
	c-20.3,0-40.6-0.1-60.9-0.1c-1.3,0-2.7,0.2-4.3,0.3c-1.7,6-0.6,11.9-0.7,17.7c-0.2,5.9,0,11.8,0.1,18.2c2,0.2,3.6,0.5,5.1,0.5
	c18.1,0,36.3-0.1,54.4-0.1c1.3,0,2.7,0.1,4,0.3c3.2,0.6,4.6,2.2,5.1,5.4c0.2,1.3,0.2,2.7,0.2,4.1c0.1,9.1-1,10.3-10.2,10.3
	c-16.5,0-33,0-49.5,0c-2.7,0-5.4,0-7.9,0C922.7,100.2,922.4,118.3,923.5,132.7z"/>
<path class="st0" d="M712.5,292.5c5.9,13.3,11.7,26.6,17.7,39.9c7.8,17.2,15.7,34.3,23.5,51.4c4.7,10.3,9.5,20.6,14,30.9
	c1,2.2,1.4,4.6,1.8,7c0.3,2.5-1.1,4.4-3.5,4.6c-4,0.3-8.1,0.3-12.2,0.1c-2.9-0.2-4.8-2-6-4.8c-3.2-7.4-6.6-14.8-10-22.1
	c-1.2-2.6-2.8-5.2-4-7.5c-14.9,0-29.3,0-43.6,0c-5.4,0-10.8,0-16.3-0.2c-2.8-0.1-4.6,0.9-5.8,3.5c-3.3,7.7-6.7,15.3-10.1,23
	c-0.5,1.2-1,2.5-1.8,3.6c-2,3.1-4.5,5.3-8.6,4.9c-3.2-0.3-6.5,0-9.7-0.4c-2.7-0.3-4.1-2.7-3.5-5.4c0.3-1.3,0.8-2.6,1.4-3.8
	c8.1-18.2,16.2-36.5,24.4-54.6c7.7-16.9,15.5-33.8,23.2-50.6c1.9-4.2,3.7-8.4,5.6-12.5c0.9-1.9,2.1-3.7,3.2-5.5
	c1.1-1.8,2.7-2.7,4.7-2.8C701.8,290.8,706.7,290.2,712.5,292.5z M678.4,372.6c15.8,0,30,0,44.3,0c0.7,0,1.3-0.8,1.8-1.1
	c0-0.8,0.2-1.4,0-1.8c-6.7-15.2-13.5-30.4-20.3-45.6c-0.5-1-1.5-1.8-2.6-3C693.9,338.2,686.5,354.7,678.4,372.6z"/>
<path class="st0" d="M847.1,381.5c0,11.1,0,21.4,0,31.6c0,2.4,0.1,4.9-0.2,7.3c-0.4,4.3-1.9,5.8-6.2,6c-3.5,0.2-7,0.1-10.5-0.2
	c-2.4-0.2-4-1.6-4.4-4.1c-0.3-2.1-0.5-4.3-0.5-6.5c-0.1-38.2-0.1-76.3-0.1-114.5c0-2.9-0.3-6,1.9-9.2c2-0.3,4.4-0.9,6.7-0.9
	c17.1,0,34.2-0.4,51.2,0.6c12.3,0.7,23.7,5.1,32.3,14.7c6.7,7.5,11,16,10.7,26.3c0,1.9,0,3.8,0,5.7c0.2,12.3-5.5,21.8-14.4,29.5
	c-5.9,5.1-12.6,9.3-20.7,10.2c-6.5,3.6-13.6,2.8-20.6,2.9c-6.2,0.1-12.5,0-18.7,0C851.8,381.1,850,381.4,847.1,381.5z M848.1,360.4
	c0.5,0.2,1,0.6,1.4,0.6c11.3-0.4,22.7-0.5,34-1.2c9.9-0.6,17.3-5.1,21.3-14.6c6.3-15.1-2.9-31.2-19.5-32.2
	c-11.6-0.7-23.2-0.3-34.9-0.4c-1,0-2,0.5-2.8,0.8C846.6,323.6,846.9,355.1,848.1,360.4z"/>
<path class="st0" d="M1301.7,391.5c-21.1,0-42.2,0-63.2,0c-4.3,4.6-5.7,10.5-8.3,15.8c-2.5,5.1-4.8,10.2-7.2,15.4
	c-0.9,1.9-2.5,3.1-4.4,3.2c-4,0.3-8.1,0.3-12.1,0.1c-2-0.1-3.5-1.8-3.4-3.9c0-1.8,0.2-3.8,0.9-5.5c11.3-24.8,23-49.3,34-74.2
	c6.5-14.8,13.5-29.4,20-44.2c2.2-5.1,5.3-7.1,10.6-6.9c1.1,0.1,2.2,0.1,3.3,0c5.6-0.4,8.6,2,10.9,7.4c6.9,16.4,14.5,32.5,21.8,48.7
	c8.1,17.9,16.2,35.9,24.4,53.8c2.3,5.1,4.9,10.2,7.2,15.3c0.6,1.2,0.9,2.5,1.1,3.9c0.3,3.3-1.3,5.2-4.5,5.6
	c-2.1,0.2-4.3-0.1-6.5,0.2c-6.6,0.8-9.9-2.8-12.2-8.3c-3.3-7.9-6.9-15.8-10.4-23.6C1303.2,393.4,1302.5,392.6,1301.7,391.5z
	 M1269.9,318.5c-8.3,18.5-15.8,35.2-23.2,51.9c-0.2,0.4,0.1,1,0.2,1.5c0.2,0.2,0.4,0.6,0.6,0.6c1.3,0.2,2.7,0.4,4,0.4
	c13.5,0,27.1-0.1,40.6-0.2c0.3,0,0.6-0.1,0.8-0.3c0.2-0.1,0.3-0.4,0.7-1.1C1285.9,354.5,1278.3,337.4,1269.9,318.5z"/>
<path class="st0" d="M537,288.5c15.9,0.8,30.7,4.8,43.3,15.2c1.9,1.5,4,2.8,5.9,4.3c2.3,1.8,2.9,3.6,1.8,6.4c-0.6,1.5-1.4,3-2.5,4.1
	c-1.8,2-3.8,3.8-5.8,5.6c-2.3,2.1-4.9,2.4-7.4,0.8c-1.6-1-3.1-2.2-4.5-3.5c-6.3-6-14.1-9.3-22.1-11c-7.5-1.6-15.6-2.1-23.1,1.2
	c-3.2,1.4-6.5,2.2-9.6,4c-11.2,6.5-17.6,16.1-20.9,28.4c-1.5,5.5-3.1,10.9-2.5,16.7c1.6,15.2,6.5,28.9,19.7,38.2
	c11.9,8.4,24.7,10.9,39.1,7.1c9.2-2.5,16.7-7.2,23.4-13.6c3.6-3.5,5.5-3.7,9-0.7c2.6,2.3,5.1,4.9,7.4,7.5c2.1,2.5,2,5.1-0.5,7.2
	c-8.3,6.9-16.7,13.4-27,17.4c-8,3.2-16.3,3.5-24.5,4.8c-1.8,0.3-3.8-0.2-5.6-0.5c-2.4-0.3-4.8-1-7.2-1.2
	c-13.7-1.4-24.9-7.9-34.8-17.2c-7.4-6.9-13.2-15.1-16.6-24.6c-2.6-7.3-5.6-14.7-4.8-22.8c0.2-2.1,0-4.3,0-6.5
	c0.4-16.2,5.9-30.5,16.5-42.7c5.7-6.6,11.9-12.5,19.8-16.4c5.6-2.7,11.1-5.3,17.3-6.3C526.3,289.7,531.4,287.6,537,288.5z"/>
<path class="st0" d="M781.6,123c2.6-5.8,4.7-10.1,6.6-14.6c5.3-12.7,10.6-25.3,15.8-38c4.7-11.4,9.2-22.9,14-34.4
	c2-4.7,4.2-9.3,6.3-14c1-2.3,2.8-3.2,5.1-3.3c3.8,0,7.6-0.1,11.4,0.1c2.8,0.1,4.5,2,4.3,4.8c-0.1,1.6-0.6,3.2-1.2,4.6
	c-5.2,12.4-10.5,24.8-15.8,37.1c-4.3,9.9-8.6,19.7-12.9,29.6c-5.3,12.4-10.6,24.8-15.9,37.1c-2.3,5.4-4.7,10.9-7,16.4
	c-1.3,3-3.6,4.7-6.8,5c-1.6,0.1-3.3,0.1-4.9,0.1c-6.5-0.1-8.5-1.5-11-7.4c-6-14.4-12.1-28.7-18.2-43.1c-7-16.6-14.1-33.2-21.2-49.8
	c-3.6-8.4-7.3-16.8-11-25.2c-0.4-1-1.1-1.9-1.4-2.9c-1.2-3.5,0.3-6.1,3.9-6.3c3.5-0.3,7-0.1,10.5-0.2c4-0.1,6.7,1.8,8.3,5.4
	c2.1,4.7,4.3,9.3,6.2,14c2.9,7,5.5,14,8.3,21c7.4,18.2,14.9,36.4,22.3,54.6C778.4,116.4,779.7,119,781.6,123z"/>
<path class="st0" d="M1108.2,312.3c-3.7-0.1-6.4-0.2-9.1-0.3c-8.1,0-16.2,0-24.3,0c-1.6,0-3.3-0.1-4.8-0.3c-1.7-0.3-3.2-1.5-3.3-3.2
	c-0.3-4.5-0.3-9.1-0.1-13.7c0.1-1.7,1.7-2.8,3.4-3c1.9-0.2,3.8-0.3,5.7-0.3c28.7,0,57.4-0.1,86.1,0c9.8,0,10.5,0.8,10.3,10.7
	c0,0.5,0,1.1,0,1.6c-0.3,6.5-1.9,8.2-8.4,8.2c-9.2,0.1-18.4-0.1-27.6-0.1c-1.8,0-3.7,0.2-6.1,0.3c-0.2,2.4-0.5,4.5-0.5,6.5
	c0,31.4,0,62.7,0,94.1c0,2.7-0.1,5.4-0.4,8.1c-0.3,2.7-1.9,4.6-4.7,4.8c-3.8,0.3-7.6,0.3-11.3,0c-2.4-0.1-4-1.7-4.2-4.2
	c-0.2-2.4-0.3-4.9-0.3-7.3c0-31.1,0-62.2,0-93.3C1108.5,318.5,1108.3,315.9,1108.2,312.3z"/>
<path class="st0" d="M1414.8,405.5c3,0.1,5.6,0.4,8.3,0.4c17.6,0,35.2,0,52.8,0.1c3.2,0,6.4,0.8,9.6,1.4c2.4,0.4,3.9,1.9,4,4.4
	c0.4,12.6,1.3,14.1-12.7,14.3c-24.3,0.3-48.7,0.1-73.1,0.1c-0.8,0-1.6,0-2.4,0c-5-0.2-6.3-1.4-6.7-6.1c-0.2-2.1-0.1-4.3-0.1-6.5
	c0-36.8,0-73.6,0-110.3c0-2.7,0.2-5.4,0.5-8.1c0.2-1.8,1.4-3.1,3.2-3.2c3.8-0.2,7.6-0.3,11.3-0.1c2.8,0.1,4.4,2,4.8,4.6
	c0.4,2.4,0.4,4.8,0.4,7.3c0,33-0.1,66-0.1,99C1414.4,403.3,1414.6,403.9,1414.8,405.5z"/>
<path class="st0" d="M1006.6,358.4c0,18.9,0,37.9,0,56.8c0,10.7-0.9,11.5-11.6,11.3c-0.5,0-1.1,0-1.6,0c-5.9-0.3-7.8-2.1-8.2-7.8
	c-0.1-1.9-0.1-3.8-0.1-5.7c0-36,0-71.9,0-107.9c0-2.7,0-5.4,0.3-8.1c0.4-3.4,1.8-5,5.2-5.2c3.8-0.3,7.6-0.2,11.3,0
	c2.5,0.1,3.9,1.6,4.2,4.1c0.3,1.9,0.3,3.8,0.3,5.7c0,18.9,0,37.9,0,56.8C1006.5,358.4,1006.6,358.4,1006.6,358.4z"/>
<path class="st0" d="M659.9,86.1c0,19,0,37.9,0,56.9c0,9.2-1.2,10.4-10.2,10.4c-9,0-10.6-1.4-10.6-10.2c-0.1-38.4,0-76.9,0-115.3
	c0-0.8,0-1.6,0-2.4c0.3-4.9,1.5-6.3,6.3-6.6c3-0.2,6-0.2,8.9,0c3.9,0.3,5.1,1.6,5.5,5.6c0.1,1.3,0.1,2.7,0.1,4.1
	C660,47.6,660,66.9,659.9,86.1C659.9,86.1,659.9,86.1,659.9,86.1z"/>
<path class="st1" d="M154.5,86.2c0.1,4.2-1.5,6.9-5.2,8.9c-7.9,4.3-15.5,9-23.3,13.4c-10.5,6-20.9,11.8-31.4,17.8
	c-5.3,3-10.6,6-15.9,9l-0.4,0.2l-60.4,34c-1.3-1.1-2-2.5-2.1-4.3c-0.1-1.4-0.1-2.9-0.1-4.3c0-10.8,0.1-21.7,0.1-32.6
	c0-1.4,0.1-2.9,0.3-4.3c0.2-1.7,1-2.9,2.6-3.8c16.9-9.5,33.7-19.1,50.6-28.6c23.6-13.4,47.2-26.8,70.7-40.2c2.8-1.6,5.8-3,8.3-5.2
	c2.3-2,5.5-0.6,6,2.4c0.2,1,0.2,2,0.2,3C154.4,63.3,154.3,74.8,154.5,86.2z"/>
</svg>
