<svg width="30" height="28" viewBox="0 0 30 28" fill="none" xmlns="http://www.w3.org/2000/svg">
<path d="M15.2805 28C7.32425 28 0.853516 21.7208 0.853516 14C0.853516 6.27922 7.32425 0 15.2805 0C23.2368 0 29.7075 6.27922 29.7075 14C29.7075 21.7208 23.2368 28 15.2805 28Z" fill="#37324B"/>
<path fill-rule="evenodd" clip-rule="evenodd" d="M13.0185 14.0669V22.1827C13.0185 22.3007 13.1136 22.393 13.2352 22.393H16.3384C16.46 22.393 16.5551 22.3007 16.5551 22.1827V13.9335H18.8072C18.9182 13.9335 19.0134 13.8515 19.0239 13.7386L19.2407 11.2556C19.2512 11.1325 19.1508 11.0248 19.0239 11.0248H16.5551V9.26004C16.5551 8.8445 16.8987 8.51105 17.327 8.51105H19.0609C19.1825 8.51105 19.2777 8.41871 19.2777 8.30072V5.81775C19.2777 5.69976 19.1825 5.60742 19.0609 5.60742H16.1269C14.4088 5.60742 13.0132 6.96176 13.0132 8.62904V11.0248H11.4589C11.3373 11.0248 11.2422 11.1171 11.2422 11.2351V13.7181C11.2422 13.8361 11.3373 13.9284 11.4589 13.9284H13.0132V14.0669H13.0185Z" fill="white"/>
</svg>
