<svg width="29" height="28" viewBox="0 0 29 28" fill="none" xmlns="http://www.w3.org/2000/svg">
<path d="M14.4269 28C6.47491 28 0 21.7218 0 14C0 6.2833 6.46962 0 14.4269 0C22.379 0 28.8539 6.27817 28.8539 14C28.8539 21.7218 22.379 28 14.4269 28Z" fill="#37324B"/>
<path d="M22.58 15.068V20.2929C22.58 20.4214 22.4741 20.5293 22.3364 20.5293H19.5569C19.4245 20.5293 19.3134 20.4265 19.3134 20.2929V15.4328C19.3134 14.1535 18.8422 13.2801 17.6615 13.2801C16.7615 13.2801 16.2268 13.8658 15.9885 14.4361C15.9038 14.6416 15.8826 14.9241 15.8826 15.2067V20.2929C15.8826 20.4214 15.7768 20.5293 15.6391 20.5293H12.8596C12.7272 20.5293 12.6161 20.4265 12.6161 20.2929C12.6213 18.9983 12.6478 12.7201 12.6213 11.2405C12.6213 11.112 12.7272 11.0041 12.8596 11.0041H15.6338C15.7662 11.0041 15.8773 11.1069 15.8773 11.2405V12.3553C15.8721 12.3656 15.8615 12.3759 15.8562 12.3861H15.8773V12.3553C16.3115 11.708 17.0845 10.7832 18.8157 10.7832C20.9705 10.7832 22.58 12.1395 22.58 15.068ZM7.79823 20.5293H10.5777C10.7101 20.5293 10.8213 20.4265 10.8213 20.2929V11.2405C10.8213 11.112 10.7154 11.0041 10.5777 11.0041H7.79823C7.66587 11.0041 7.55469 11.1069 7.55469 11.2405V20.2929C7.55469 20.4214 7.66587 20.5293 7.79823 20.5293Z" fill="white"/>
<path d="M9.08694 9.79709C10.0518 9.79709 10.834 9.03802 10.834 8.10167C10.834 7.16532 10.0518 6.40625 9.08694 6.40625C8.12205 6.40625 7.33984 7.16532 7.33984 8.10167C7.33984 9.03802 8.12205 9.79709 9.08694 9.79709Z" fill="white"/>
</svg>
