<svg width="30" height="28" viewBox="0 0 30 28" fill="none" xmlns="http://www.w3.org/2000/svg">
<path d="M15.1234 26.1449C22.1037 26.1449 27.7623 20.6538 27.7623 13.8801C27.7623 7.10639 22.1037 1.61523 15.1234 1.61523C8.14304 1.61523 2.48438 7.10639 2.48438 13.8801C2.48438 20.6538 8.14304 26.1449 15.1234 26.1449Z" fill="white"/>
<path d="M15.134 28C7.17813 28 0.707031 21.7204 0.707031 14C0.707031 6.2796 7.17813 0 15.134 0C23.0898 0 29.5609 6.2796 29.5609 14C29.5662 21.7204 23.0898 28 15.134 28ZM20.0032 8.31944C19.4125 8.31944 18.9336 8.78421 18.9336 9.35743C18.9336 9.93065 19.4125 10.3954 20.0032 10.3954C20.5939 10.3954 21.0729 9.93065 21.0729 9.35743C21.0729 8.78421 20.5886 8.31944 20.0032 8.31944ZM15.2564 9.64662C12.7818 9.64662 10.7702 11.5987 10.7702 14C10.7702 16.4013 12.7818 18.3534 15.2564 18.3534C17.7309 18.3534 19.7425 16.4013 19.7425 14C19.7425 11.5987 17.7256 9.64662 15.2564 9.64662ZM15.2564 16.7886C13.6705 16.7886 12.3827 15.5389 12.3827 14C12.3827 12.4611 13.6705 11.2114 15.2564 11.2114C16.8422 11.2114 18.13 12.4611 18.13 14C18.13 15.5338 16.8369 16.7886 15.2564 16.7886ZM24.3031 10.3799C24.3031 7.4467 21.8552 5.07119 18.8325 5.07119H11.611C8.58836 5.07119 6.14041 7.4467 6.14041 10.3799V17.3877C6.14041 20.3209 8.58836 22.6964 11.611 22.6964H18.8325C21.8552 22.6964 24.3031 20.3209 24.3031 17.3877V10.3799ZM22.5896 17.3877C22.5896 19.4017 20.9079 21.0336 18.8325 21.0336H11.611C9.53561 21.0336 7.85398 19.4017 7.85398 17.3877V10.3799C7.85398 8.36592 9.53561 6.73405 11.611 6.73405H18.8325C20.9079 6.73405 22.5896 8.36592 22.5896 10.3799V17.3877Z" fill="#37324B"/>
</svg>
